<?xml version="1.0" encoding="UTF-8" standalone="no"?>
<svg width="513px" height="511px" viewBox="0 0 513 511" version="1.1" xmlns="http://www.w3.org/2000/svg" xmlns:xlink="http://www.w3.org/1999/xlink" xmlns:sketch="http://www.bohemiancoding.com/sketch/ns">
    <!-- Generator: Sketch 3.0.1 (7597) - http://www.bohemiancoding.com/sketch -->
    <title>caret-l</title>
    <description>Created with Sketch.</description>
    <defs></defs>
    <g id="icons" stroke="none" stroke-width="1" fill="none" fill-rule="evenodd" sketch:type="MSPage">
        <g id="caret-l" sketch:type="MSArtboardGroup" fill="#414042">
            <path d="M262.676434,239.883465 C263.015946,239.498188 263.355459,239.112912 263.717605,238.750298 C264.102385,238.365022 264.441897,238.047735 264.849312,237.685122 L264.89458,237.662458 L346.083247,156.391759 L363.647341,138.759688 C380.985093,121.422241 380.985093,93.3423756 363.647341,76.0049285 C346.581198,58.8714513 318.967545,58.6674813 301.652426,75.3930186 L300.36228,76.6848283 L140.067289,237.186529 C139.773045,237.458488 139.478801,237.753112 139.184557,238.070398 L139.139289,238.093062 C134.22768,243.011004 131.851095,249.538043 132.009534,256.042419 C131.828461,262.546794 134.22768,269.05117 139.116655,274.014439 L139.161923,274.037102 C139.478801,274.309062 139.773045,274.603686 140.067289,274.920972 L300.36228,435.422673 L301.652426,436.691819 C318.990179,453.417356 346.581198,453.213386 363.647341,436.102572 C380.985093,418.765125 380.985093,390.662597 363.647341,373.325149 L346.083247,355.693079 L264.89458,274.399716 L264.849312,274.377052 C264.441897,274.037102 264.102385,273.697153 263.717605,273.334539 C263.355459,272.949263 263.015946,272.563986 262.676434,272.201373 L262.6538,272.156046 C258.579655,267.55539 256.542582,261.776241 256.542582,256.019755 C256.542582,250.26327 258.579655,244.506784 262.6538,239.906128 L262.676434,239.883465 L262.676434,239.883465 Z" id="Shape" sketch:type="MSShapeGroup"></path>
        </g>
    </g>
</svg>