<?xml version="1.0" encoding="UTF-8" standalone="no"?>
<svg width="513px" height="511px" viewBox="0 0 513 511" version="1.1" xmlns="http://www.w3.org/2000/svg" xmlns:xlink="http://www.w3.org/1999/xlink" xmlns:sketch="http://www.bohemiancoding.com/sketch/ns">
    <!-- Generator: Sketch 3.0.1 (7597) - http://www.bohemiancoding.com/sketch -->
    <title>caret-r</title>
    <description>Created with Sketch.</description>
    <defs></defs>
    <g id="icons" stroke="none" stroke-width="1" fill="none" fill-rule="evenodd" sketch:type="MSPage">
        <g id="caret-r" sketch:type="MSArtboardGroup" fill="#414042">
            <path d="M369.533263,238.090401 L369.533263,238.090401 C369.216356,237.750456 368.922085,237.4785 368.605178,237.183881 L208.295408,76.6846204 L207.005143,75.3928302 C189.665792,58.6675472 162.094866,58.871514 145.004513,76.0047308 C127.665162,93.3192514 127.665162,121.421353 145.004513,138.758537 L162.592863,156.390339 L243.766378,237.659804 L243.81165,237.682467 C244.219102,238.022412 244.558646,238.362356 244.943462,238.747627 C245.328278,239.110235 245.645185,239.495506 246.007364,239.858113 L246.030001,239.926102 C250.104522,244.526688 252.119146,250.283087 252.119146,256.039485 C252.119146,261.795883 250.104522,267.552281 246.030001,272.17553 L246.007364,272.220856 C245.645185,272.583464 245.328278,272.968735 244.943462,273.354005 C244.558646,273.716613 244.219102,274.056558 243.81165,274.396503 L243.766378,274.419166 L162.592863,355.68863 L145.004513,373.320433 C127.665162,390.657616 127.665162,418.759718 145.004513,436.074239 C162.094866,453.207455 189.688428,453.434085 207.005143,436.686139 L208.295408,435.417012 L368.605178,274.917751 C368.922085,274.60047 369.216356,274.328514 369.533263,274.033895 L369.533263,274.011232 C374.445324,269.048038 376.822128,262.521099 376.641039,256.039485 C376.822128,249.535208 374.445324,243.008268 369.533263,238.090401 L369.533263,238.090401 Z" id="Shape" sketch:type="MSShapeGroup"></path>
        </g>
    </g>
</svg>