<?xml version="1.0" encoding="UTF-8" standalone="no"?>
<svg width="513px" height="511px" viewBox="0 0 513 511" version="1.1" xmlns="http://www.w3.org/2000/svg" xmlns:xlink="http://www.w3.org/1999/xlink" xmlns:sketch="http://www.bohemiancoding.com/sketch/ns">
    <!-- Generator: Sketch 3.0.1 (7597) - http://www.bohemiancoding.com/sketch -->
    <title>check</title>
    <description>Created with Sketch.</description>
    <defs></defs>
    <g id="icons" stroke="none" stroke-width="1" fill="none" fill-rule="evenodd" sketch:type="MSPage">
        <g id="check" sketch:type="MSArtboardGroup" fill="#414042">
            <path d="M500.887209,80.0365268 C485.483065,64.6674368 460.840885,64.0011468 444.657629,78.1264953 L440.695291,82.1020258 L272.607579,249.873855 L197.300901,325.03137 C196.877955,325.497773 196.455009,325.986386 195.987542,326.430579 C195.520075,326.874772 195.052608,327.318966 194.585141,327.71874 L194.429319,327.851998 L194.251236,327.985256 C185.636491,335.003511 173.126188,334.803624 164.756306,327.385595 L164.555963,327.207917 C164.288839,326.963611 163.999455,326.697095 163.732331,326.430579 C163.442947,326.141853 163.175823,325.853128 162.93096,325.586612 L162.775137,325.386725 L87.0009919,249.807226 L70.5951326,233.416491 C54.4341369,217.270063 28.2782553,217.270063 12.1172596,233.416491 C-3.70983129,249.185355 -4.04373616,274.571005 11.1823259,290.717434 L13.1189742,292.671884 L162.26315,441.476657 L163.509728,442.742608 C163.66555,442.875866 163.799112,443.009124 163.932674,443.142382 C172.458378,450.782508 185.347106,450.960185 194.006373,443.608785 L196.677612,440.921415 L237.636609,400.077837 L237.614349,400.055627 L249.523623,388.195665 L354.147149,283.832437 C354.458793,283.477082 354.748178,283.166147 355.082082,282.833002 C355.415987,282.499857 355.749892,282.211131 356.106057,281.900196 L371.198558,266.797622 L371.332119,266.90867 L497.459119,141.29079 L503.936874,134.805567 C516.914643,118.659139 515.890668,95.0058427 500.887209,80.0365268 L500.887209,80.0365268 Z" id="Shape" sketch:type="MSShapeGroup"></path>
        </g>
    </g>
</svg>