<?xml version="1.0" encoding="UTF-8" standalone="no"?>
<svg width="513px" height="511px" viewBox="0 0 513 511" version="1.1" xmlns="http://www.w3.org/2000/svg" xmlns:xlink="http://www.w3.org/1999/xlink" xmlns:sketch="http://www.bohemiancoding.com/sketch/ns">
    <!-- Generator: Sketch 3.0.1 (7597) - http://www.bohemiancoding.com/sketch -->
    <title>clipboard</title>
    <description>Created with Sketch.</description>
    <defs></defs>
    <g id="icons" stroke="none" stroke-width="1" fill="none" fill-rule="evenodd" sketch:type="MSPage">
        <g id="clipboard" sketch:type="MSArtboardGroup" fill="#4A4A4A">
            <path d="M139.270784,150.483323 L139.270784,151.280737 L139.270784,152.032584 C139.681822,159.73332 146.052911,165.862013 153.908304,165.862013 L203.803751,165.862013 L238.102589,165.862013 L250.456564,165.862013 L256.736311,165.862013 L263.06173,165.862013 L275.415705,165.862013 L309.714543,165.862013 L359.632825,165.862013 C367.488218,165.862013 373.859307,159.710537 374.270345,152.032584 L374.270345,151.280737 L374.270345,150.483323 C373.904978,126.447002 357.463458,106.283831 335.107558,100.291838 C334.628013,100.155139 334.079963,100.018439 333.600418,99.8817396 C319.80781,95.985805 309.737379,83.3411048 309.737379,68.3497306 L309.737379,52.8343417 C309.737379,23.67179 286.011352,0 256.736311,0 C227.529778,0 203.803751,23.67179 203.803751,52.8343417 L203.803751,68.3497306 C203.803751,83.3411048 193.733319,95.985805 179.940711,99.9045229 C179.461167,100.041222 178.913116,100.155139 178.387901,100.291838 C156.077671,106.283831 139.613316,126.469785 139.270784,150.483323 L139.270784,150.483323 Z M256.736311,37.045554 C265.482287,37.045554 272.561275,44.1311427 272.561275,52.8343417 C272.561275,61.5831072 265.459451,68.6459127 256.736311,68.6459127 C248.036007,68.6459127 240.957019,61.560324 240.957019,52.8343417 C240.957019,44.1311427 248.036007,37.045554 256.736311,37.045554 Z M431.267615,32.4433388 L417.132475,32.4433388 L368.652826,32.4433388 L367.145687,32.4433388 L345.246495,32.4433388 L345.246495,54.2924693 C345.246495,66.3675884 355.065736,76.1871663 367.145687,76.1871663 L404.961183,76.1871663 C412.816576,76.1871663 419.187665,82.3158589 419.598703,90.0165952 L419.598703,90.745659 L419.598703,91.497506 L419.598703,452.816965 L419.598703,453.546029 L419.598703,454.297876 C419.187665,461.63408 413.410298,467.557724 406.125791,468.081738 C405.760424,468.104521 405.372221,468.127305 404.961183,468.127305 C404.595816,468.127305 404.253284,468.104521 403.842246,468.081738 L256.736311,468.081738 L109.698883,468.081738 C109.287845,468.104521 108.945313,468.127305 108.534275,468.127305 C108.168908,468.127305 107.780706,468.104521 107.415338,468.081738 C100.153667,467.557724 94.3534641,461.63408 93.9424261,454.297876 L93.9424261,453.546029 L93.9424261,452.816965 L93.9424261,91.5202892 L93.9424261,90.7684422 L93.9424261,90.0393784 C94.3534641,82.3158589 100.724553,76.2099496 108.534275,76.2099496 L146.395443,76.2099496 C158.475393,76.2099496 168.294634,66.3903716 168.294634,54.3152526 L168.294634,32.4433388 L146.395443,32.4433388 L144.888303,32.4433388 L96.4086541,32.4433388 L82.2735139,32.4433388 C64.5075379,32.4433388 50.1212077,46.7967822 50.1212077,64.5221457 L50.1212077,479.792325 C50.1212077,497.494906 64.5303733,511.871132 82.2735139,511.871132 L256.759147,511.871132 L431.290451,511.871132 C449.033591,511.871132 463.442757,497.494906 463.442757,479.792325 L463.442757,64.5221457 C463.419921,46.7967822 449.010756,32.4433388 431.267615,32.4433388 Z M360.135205,237.674796 C360.135205,229.085514 353.764116,221.977142 345.406343,220.815196 L340.679406,220.815196 L172.9759,220.815196 L168.248963,220.815196 C159.959697,221.977142 153.520101,229.085514 153.520101,237.674796 L153.520101,239.565806 C153.520101,248.155088 159.89119,255.26346 168.203292,256.448189 L173.021571,256.448189 L340.633735,256.448189 L345.497685,256.448189 C353.786951,255.26346 360.135205,248.155088 360.135205,239.565806 L360.135205,237.674796 Z M345.497685,334.184616 C353.786951,332.999887 360.135205,325.891515 360.135205,317.302233 L360.135205,315.411223 C360.135205,306.821941 353.764116,299.713569 345.406343,298.551623 L340.679406,298.551623 L172.9759,298.551623 L168.248963,298.551623 C159.959697,299.713569 153.520101,306.821941 153.520101,315.411223 L153.520101,317.302233 C153.520101,325.891515 159.89119,332.999887 168.203292,334.184616 L173.021571,334.184616 L340.633735,334.184616 L345.497685,334.184616 Z M270.52892,375.51342 L172.9759,375.51342 L168.248963,375.51342 C159.959697,376.675365 153.520101,383.783737 153.520101,392.418586 L153.520101,394.286812 C153.520101,402.876095 159.89119,409.984467 168.203292,411.146413 L173.021571,411.146413 L270.483249,411.146413 L275.347199,411.146413 C283.636465,409.984467 289.984719,402.876095 289.984719,394.286812 L289.984719,392.418586 C289.984719,383.783737 283.61363,376.675365 275.255857,375.51342 L270.52892,375.51342 Z" id="Shape" sketch:type="MSShapeGroup"></path>
        </g>
    </g>
</svg>