<?xml version="1.0" encoding="UTF-8" standalone="no"?>
<svg width="513px" height="511px" viewBox="0 0 513 511" version="1.1" xmlns="http://www.w3.org/2000/svg" xmlns:xlink="http://www.w3.org/1999/xlink" xmlns:sketch="http://www.bohemiancoding.com/sketch/ns">
    <!-- Generator: Sketch 3.0.1 (7597) - http://www.bohemiancoding.com/sketch -->
    <title>clipboard-check</title>
    <description>Created with Sketch.</description>
    <defs></defs>
    <g id="icons" stroke="none" stroke-width="1" fill="none" fill-rule="evenodd" sketch:type="MSPage">
        <g id="clipboard-check" sketch:type="MSArtboardGroup" fill="#4A4A4A">
            <path d="M139.293619,150.483323 C139.293619,150.756722 139.270784,151.007338 139.270784,151.280737 C139.270784,151.531353 139.270784,151.759185 139.293619,152.032584 C139.704657,159.73332 146.075746,165.862013 153.908304,165.862013 L203.826586,165.862013 L238.102589,165.862013 L250.456564,165.862013 L256.759147,165.862013 L263.084565,165.862013 L275.438541,165.862013 L309.714543,165.862013 L359.655661,165.862013 C367.488218,165.862013 373.859307,159.710537 374.270345,152.032584 C374.293181,151.759185 374.293181,151.531353 374.293181,151.280737 C374.293181,151.007338 374.270345,150.756722 374.270345,150.483323 C373.904978,126.447002 357.463458,106.283831 335.130393,100.291838 C334.628013,100.155139 334.102798,100.018439 333.600418,99.8817396 C319.830645,95.985805 309.737379,83.3411048 309.737379,68.3497306 L309.737379,52.8343417 C309.737379,23.67179 286.034187,0 256.781982,0 C227.552613,0 203.826586,23.67179 203.826586,52.8343417 L203.826586,68.3497306 C203.826586,83.3411048 193.756155,95.985805 179.963546,99.9045229 C179.461167,100.041222 178.958787,100.155139 178.410736,100.291838 C156.123342,106.283831 139.658986,126.469785 139.293619,150.483323 L139.293619,150.483323 Z M256.781982,37.045554 C265.527958,37.045554 272.606946,44.1311427 272.606946,52.8343417 C272.606946,61.5831072 265.505122,68.6459127 256.781982,68.6459127 C248.058842,68.6459127 240.979855,61.560324 240.979855,52.8343417 C240.957019,44.1311427 248.058842,37.045554 256.781982,37.045554 Z M431.267615,32.4433388 L417.155311,32.4433388 L368.675661,32.4433388 L367.168522,32.4433388 L345.246495,32.4433388 L345.246495,54.2924693 C345.246495,66.3675884 355.065736,76.1871663 367.168522,76.1871663 L404.984018,76.1871663 C412.816576,76.1871663 419.210501,82.3158589 419.598703,90.0165952 C419.621539,90.2444276 419.621539,90.4950433 419.621539,90.745659 C419.621539,91.0190579 419.621539,91.2468903 419.598703,91.497506 L419.598703,452.816965 C419.621539,453.067581 419.621539,453.295413 419.621539,453.546029 C419.621539,453.819428 419.621539,454.04726 419.598703,454.297876 C419.210501,461.63408 413.410298,467.557724 406.125791,468.081738 C405.760424,468.104521 405.395056,468.127305 404.984018,468.127305 C404.595816,468.127305 404.253284,468.104521 403.865082,468.081738 L256.781982,468.081738 L109.721718,468.081738 C109.333516,468.104521 108.990984,468.127305 108.579946,468.127305 C108.191744,468.127305 107.826376,468.104521 107.461009,468.081738 C100.176503,467.557724 94.3762996,461.63408 93.988097,454.297876 C93.9652615,454.04726 93.9652615,453.819428 93.9652615,453.546029 C93.9652615,453.295413 93.9652615,453.067581 93.988097,452.816965 L93.988097,91.5202892 C93.9652615,91.2696736 93.9652615,91.0190579 93.9652615,90.745659 C93.9652615,90.4950433 93.9652615,90.2444276 93.988097,90.0165952 C94.3762996,82.2930756 100.770224,76.1871663 108.579946,76.1871663 L146.418278,76.1871663 C158.521064,76.1871663 168.340305,66.3675884 168.340305,54.2924693 L168.340305,32.4433388 L146.418278,32.4433388 L144.888303,32.4433388 L96.4086541,32.4433388 L82.2963493,32.4433388 C64.5303733,32.4433388 50.1440432,46.7967822 50.1440432,64.5221457 L50.1440432,479.792325 C50.1440432,497.494906 64.5303733,511.871132 82.2963493,511.871132 L256.781982,511.871132 L431.290451,511.871132 C449.056427,511.871132 463.442757,497.494906 463.442757,479.792325 L463.442757,64.5221457 C463.442757,46.7967822 449.056427,32.4433388 431.267615,32.4433388 Z M336.591862,228.948814 C330.517633,228.948814 324.648924,231.158789 320.081835,235.123073 C319.899151,235.282556 319.716468,235.442039 319.533784,235.624305 L236.298588,318.69201 L206.498333,288.959878 C201.748561,284.220963 195.423142,281.60089 188.709522,281.60089 C181.973065,281.60089 175.670483,284.220963 170.92071,288.959878 C161.261317,298.59719 160.987292,313.953096 170.349824,323.863807 L222.50598,375.923518 L222.917018,376.310833 C223.122537,376.515882 223.350891,376.743715 223.533575,376.903198 C226.981727,379.978936 231.457474,381.687679 236.093069,381.687679 C240.545981,381.687679 244.884716,380.115635 248.264361,377.222163 C248.492716,377.039897 248.72107,376.834848 248.903754,376.652582 L263.883806,361.706774 C263.997983,361.570075 264.134996,361.456159 264.249173,361.342242 L303.937176,321.744965 C304.051353,321.653832 304.16553,321.517133 304.256872,321.403216 C304.393885,321.2893 304.508062,321.175384 304.622239,321.061468 L309.02948,316.664302 C309.326341,316.436469 309.57753,316.185854 309.82872,315.958021 L355.408268,270.551017 C355.705129,270.254835 355.956319,269.981436 356.207509,269.66247 C364.245585,259.68341 363.423509,245.35275 354.357838,236.262235 C349.608065,231.568887 343.305482,228.948814 336.591862,228.948814 Z" id="Shape" sketch:type="MSShapeGroup"></path>
        </g>
    </g>
</svg>