<?xml version="1.0" encoding="UTF-8" standalone="no"?>
<svg width="513px" height="511px" viewBox="0 0 513 511" version="1.1" xmlns="http://www.w3.org/2000/svg" xmlns:xlink="http://www.w3.org/1999/xlink" xmlns:sketch="http://www.bohemiancoding.com/sketch/ns">
    <!-- Generator: Sketch 3.0.1 (7597) - http://www.bohemiancoding.com/sketch -->
    <title>cog</title>
    <description>Created with Sketch.</description>
    <defs></defs>
    <g id="icons" stroke="none" stroke-width="1" fill="none" fill-rule="evenodd" sketch:type="MSPage">
        <g id="cog" sketch:type="MSArtboardGroup" fill="#4A4A4A">
            <path d="M456.118022,239.082221 L455.893204,239.099515 C455.097694,231.282767 448.88926,225.057039 441.089806,224.296117 L437.700243,224.296117 L431.976032,224.296117 L431.976032,224.175061 C422.205097,224.175061 413.713896,218.537318 409.649879,210.305522 C408.664138,208.299454 407.92051,206.137743 407.522755,203.854976 C405.689624,198.736044 403.597087,193.755461 401.279733,188.895934 C401.279733,188.878641 401.279733,188.878641 401.262439,188.861347 C400.103762,187.131978 399.152609,185.26426 398.443568,183.275485 L398.443568,183.240898 C397.509709,180.646845 397.025485,177.845267 397.025485,174.939927 C397.025485,168.074333 399.792476,161.831311 404.323422,157.334951 L404.288835,157.334951 L409.355886,152.2679 C409.425061,152.216019 409.494235,152.164138 409.56341,152.094964 C409.615291,152.025789 409.684466,151.956614 409.736347,151.887439 C415.650789,145.782767 415.944782,136.323119 410.6875,129.872573 L410.791262,129.803398 C406.900182,125.134102 402.836165,120.689624 398.564624,116.435376 C394.18932,112.042779 389.623786,107.892294 384.868022,103.932039 L384.816141,103.98392 C378.970874,99.2108617 370.618022,99.0379248 364.565231,103.465109 L360.898968,107.114078 L357.492112,110.503641 L357.336468,110.347998 C350.073119,117.628641 339.4375,119.461772 330.444782,115.847391 C329.234223,115.380461 328.040959,114.775182 326.916869,114.083434 C321.192658,111.316444 315.278216,108.86074 309.208131,106.785498 C308.135922,106.508799 307.081007,106.162925 306.026092,105.730583 C306.026092,105.730583 306.008799,105.730583 305.991505,105.695995 C303.01699,104.520024 300.215413,102.6696 297.777002,100.265777 C293.730279,96.2017597 291.361044,91.0828277 290.68659,85.773665 C290.409891,83.6984223 290.409891,81.6231796 290.68659,79.5479369 L290.68659,75.2936893 C290.68659,67.1137743 284.772148,60.3346481 277.007282,58.9511529 C276.038835,58.8473908 275.087682,58.778216 274.101942,58.6917476 L274.084648,58.6917476 C268.602549,58.2421117 263.068568,58 257.482706,58 C251.896845,58 246.362864,58.2421117 240.880765,58.6917476 L240.863471,58.6917476 C239.877731,58.778216 238.926578,58.8473908 237.940837,58.9511529 C230.175971,60.3346481 224.278823,67.1137743 224.278823,75.2936893 L224.278823,82.6953883 C224.278823,93.400182 217.551578,102.513956 208.074636,106.041869 C207.48665,106.283981 206.864078,106.474211 206.241505,106.647148 C199.600728,108.895328 193.150182,111.57585 186.959041,114.636833 C186.924454,114.654126 186.924454,114.67142 186.889867,114.67142 C186.405643,114.948119 185.904126,115.190231 185.385316,115.415049 C182.237864,116.867718 178.727245,117.680522 175.043689,117.680522 C168.178095,117.680522 161.935073,114.878944 157.438714,110.382585 L157.386833,110.417172 L152.129551,105.194478 C146.353459,99.4183859 137.429915,98.7612257 130.962075,103.257585 C130.218447,103.862864 129.474818,104.468143 128.765777,105.073422 C128.731189,105.125303 128.696602,105.159891 128.662015,105.194478 C124.425061,108.774272 120.361044,112.527002 116.435376,116.435376 C112.509709,120.326456 108.774272,124.407767 105.194478,128.627427 C105.194478,128.627427 105.177184,128.627427 105.177184,128.662015 C104.537318,129.405643 103.897451,130.166566 103.292172,130.927488 C98.7612257,137.412621 99.4183859,146.353459 105.194478,152.129551 L110.434466,157.369539 C117.974515,164.926881 119.652002,176.098604 115.501517,185.26426 C115.224818,185.834951 114.965413,186.405643 114.636833,186.959041 C111.57585,193.132888 108.912621,199.566141 106.681735,206.17233 C106.474211,206.881371 106.249393,207.555825 105.972694,208.230279 C105.972694,208.230279 105.972694,208.230279 105.972694,208.264867 C104.762136,211.412318 102.877124,214.386833 100.334951,216.911711 C95.4581311,221.788532 89.1113471,224.209648 82.7299757,224.209648 L82.7299757,224.278823 L75.2936893,224.278823 C67.1137743,224.278823 60.3346481,230.175971 58.9511529,237.940837 C58.8473908,238.909284 58.7609223,239.877731 58.6744539,240.863471 L58.6744539,240.863471 C58.2421117,246.241808 58,252.0179 58,257.482706 L58,257.482706 L58,257.621056 L58,257.759405 L58,257.759405 C58,263.258799 58.2421117,268.706311 58.6744539,274.067354 L58.6744539,274.101942 C58.7609223,275.070388 58.8473908,276.021541 58.9511529,277.007282 C60.3346481,284.772148 67.1137743,290.68659 75.2591019,290.68659 L75.2936893,290.68659 L82.7299757,290.68659 C93.3310073,290.68659 102.375607,297.327367 105.972694,306.665959 L105.972694,306.700546 C106.214806,307.323119 106.42233,307.945692 106.577973,308.568265 C106.612561,308.602852 106.612561,308.637439 106.647148,308.68932 C108.878034,315.312803 111.558556,321.76335 114.619539,327.971784 C114.654126,328.006371 114.67142,328.040959 114.688714,328.075546 C114.965413,328.542476 115.190231,329.061286 115.432342,329.562803 C116.885012,332.727549 117.697816,336.255461 117.697816,339.939017 C117.697816,346.804612 114.913532,353.047633 110.399879,357.561286 L110.434466,357.595874 L105.367415,362.662925 C105.29824,362.714806 105.229066,362.783981 105.159891,362.853155 C105.090716,362.92233 105.021541,362.991505 104.96966,363.06068 C99.4529733,368.767597 98.8131068,377.483617 103.119235,383.864988 C103.84557,384.746966 104.571905,385.628944 105.29824,386.459041 C108.843447,390.644114 112.56159,394.673544 116.45267,398.54733 L116.45267,398.54733 C120.34375,402.43841 124.390473,406.173847 128.575546,409.719053 C129.422937,410.428095 130.270328,411.137136 131.100425,411.846177 C136.859223,415.737257 144.503034,415.598908 150.15807,411.48301 L153.807039,407.834041 L157.213896,404.427184 L157.369539,404.565534 C164.926881,397.025485 176.133192,395.347998 185.316141,399.53307 C185.78307,399.740595 186.267294,399.965413 186.699636,400.207524 C186.734223,400.242112 186.786104,400.242112 186.820692,400.276699 C193.063714,403.389563 199.566141,406.087379 206.258799,408.352852 C206.82949,408.525789 207.400182,408.716019 207.970874,408.923544 C211.222087,410.134102 214.300364,412.036408 216.946299,414.665049 C221.805825,419.524575 224.244235,425.871359 224.244235,432.270024 L224.31341,432.270024 L224.31341,439.533374 C224.31341,448.111044 230.833131,455.201456 239.203277,456.048847 L239.203277,456.152609 C245.238774,456.723301 251.326153,457 257.517294,457 C263.708434,457 269.778519,456.723301 275.831311,456.152609 L275.814017,456.048847 C284.166869,455.201456 290.721177,448.111044 290.721177,439.533374 L290.721177,432.131675 C290.721177,422.135922 296.601032,413.523665 305.074939,409.56341 C306.804308,408.750607 308.620146,408.145328 310.505158,407.747573 C315.969964,405.827973 321.279126,403.631675 326.449939,401.12409 C327.937197,400.13835 329.562803,399.325546 331.240291,398.720267 C333.938107,397.699939 336.878034,397.129248 339.956311,397.129248 C346.268507,397.129248 352.0446,399.498483 356.45449,403.406857 C357.215413,404.046723 357.924454,404.755765 358.598908,405.533981 L362.835862,409.788228 L362.853155,409.753641 C368.698422,415.598908 377.846784,416.1696 384.331917,411.48301 C384.366505,411.48301 384.383799,411.448422 384.401092,411.413835 C384.937197,410.981493 385.473301,410.531857 385.992112,410.099515 C390.350121,406.415959 394.535194,402.559466 398.564624,398.54733 C402.594053,394.535194 406.433252,390.332828 410.116808,385.974818 C410.583738,385.404126 411.067961,384.833434 411.534891,384.245449 C416.100425,378.002427 415.685376,369.286408 410.410801,363.423847 L410.393507,363.406553 L409.217536,362.230583 L404.582828,357.57858 L404.582828,357.561286 C397.146541,350.125 395.399879,339.195388 399.308252,330.098908 C399.67142,329.251517 400.086468,328.404126 400.553398,327.591323 C403.493325,321.607706 406.070085,315.399272 408.24909,309.0179 C408.491201,308.17051 408.750607,307.323119 409.096481,306.510316 C410.289745,303.397451 412.174757,300.492112 414.665049,297.984527 C419.507282,293.142294 425.871359,290.703883 432.270024,290.703883 L432.270024,290.669296 L439.429612,290.669296 L439.429612,290.565534 C448.301274,290.565534 455.564624,283.596177 455.996966,274.828277 L456.256371,274.862864 C456.740595,269.121359 457,263.31068 457,257.465413 C456.965413,251.274272 456.688714,245.135012 456.118022,239.082221 L456.118022,239.082221 Z M360,257.491333 L360,257.491333 C360,269.139258 358.076013,280.336518 354.488036,290.771117 C353.136045,294.740424 351.524055,298.605733 349.7214,302.349708 C344.746766,312.576308 338.073476,321.849581 330.152194,329.840196 C322.196246,337.813478 312.957639,344.486768 302.748372,349.513402 C298.96973,351.368056 295.087089,352.997379 291.083115,354.384037 C280.648516,358.00668 269.451256,359.965334 257.803331,360 L257.491333,360 C245.947408,360 234.871481,358.110679 224.523548,354.592035 C220.363575,353.205378 216.324934,351.506722 212.459626,349.617401 C202.285026,344.642767 193.081086,338.03881 185.159804,330.134861 C177.169189,322.196246 170.495899,312.957639 165.486598,302.748372 C163.597277,298.883064 161.915955,294.896423 160.511964,290.78845 C156.958654,280.423184 155.017333,269.329923 155,257.751332 C155.034666,246.207407 156.958654,234.594149 160.511964,224.228883 C161.898622,220.103577 163.579944,216.099603 165.469265,212.251628 C170.495899,202.042361 177.151856,192.803754 185.142471,184.865139 C193.133085,176.909191 202.406358,170.253234 212.632958,165.2786 C216.446267,163.406612 220.415575,161.794622 224.506215,160.407965 C234.871481,156.889321 245.930075,155 257.474,155 L257.785998,155 C269.433922,155.034666 280.631183,157.010654 291.065782,160.615963 C295.052422,162.002621 298.952397,163.631944 302.713706,165.486598 C312.940306,170.513232 322.178913,177.203856 330.117528,185.159804 C338.021476,193.115752 344.625433,202.319692 349.600068,212.459626 C351.454722,216.255602 353.084045,220.172909 354.470703,224.228883 C358.041346,234.628815 359.982667,245.791409 359.982667,257.404667 L359.982667,257.491333 L360,257.491333 Z" id="Shape" sketch:type="MSShapeGroup"></path>
        </g>
    </g>
</svg>