<?xml version="1.0" encoding="UTF-8" standalone="no"?>
<svg width="513px" height="511px" viewBox="0 0 513 511" version="1.1" xmlns="http://www.w3.org/2000/svg" xmlns:xlink="http://www.w3.org/1999/xlink" xmlns:sketch="http://www.bohemiancoding.com/sketch/ns">
    <!-- Generator: Sketch 3.0.1 (7597) - http://www.bohemiancoding.com/sketch -->
    <title>ellipsis</title>
    <description>Created with Sketch.</description>
    <defs></defs>
    <g id="icons" stroke="none" stroke-width="1" fill="none" fill-rule="evenodd" sketch:type="MSPage">
        <g id="ellipsis" sketch:type="MSArtboardGroup" fill="#4A4A4A">
            <path d="M310,402 C310,374.938047 288.061953,353 261,353 C233.938047,353 212,374.938047 212,402 C212,429.061953 233.938047,451 261,451 C288.061953,451 310,429.061953 310,402 Z M310,256 C310,228.938047 288.061953,207 261,207 C233.938047,207 212,228.938047 212,256 C212,283.061953 233.938047,305 261,305 C288.061953,305 310,283.061953 310,256 Z M310,109 C310,81.9380473 288.061953,60 261,60 C233.938047,60 212,81.9380473 212,109 C212,136.061953 233.938047,158 261,158 C288.061953,158 310,136.061953 310,109 Z" id="Oval-1" sketch:type="MSShapeGroup"></path>
        </g>
    </g>
</svg>