<?xml version="1.0" encoding="UTF-8" standalone="no"?>
<svg width="513px" height="511px" viewBox="0 0 513 511" version="1.1" xmlns="http://www.w3.org/2000/svg" xmlns:xlink="http://www.w3.org/1999/xlink" xmlns:sketch="http://www.bohemiancoding.com/sketch/ns">
    <!-- Generator: Sketch 3.0.1 (7597) - http://www.bohemiancoding.com/sketch -->
    <title>facebook</title>
    <description>Created with Sketch.</description>
    <defs></defs>
    <g id="icons" stroke="none" stroke-width="1" fill="none" fill-rule="evenodd" sketch:type="MSPage">
        <g id="facebook" sketch:type="MSArtboardGroup" fill="#4A4A4A">
            <path d="M257,512 L64.809929,512 C29.6244402,512 1,483.431322 1,448.19007 L1,63.809929 C1,28.6244402 29.5686783,0 64.809929,0 L449.19007,0 C484.375558,0 513,28.5686783 513,63.809929 L513,448.19007 C513,483.375558 484.431322,512 449.19007,512 L342.333334,512 L342.333334,354.461539 L430.23071,354.461539 L430.23071,265.846154 L342.333334,265.846154 L342.333334,208.341346 L342.333334,202.305732 L340.778733,196.49003 C340.43553,193.609804 340.903958,189.557125 342.269165,187.478963 C345.977715,181.8337 357.821594,176.641226 385.729168,176.641226 L430.838541,176.641226 L430.838541,88.0258413 L385.729168,88.0258413 C331.834426,88.0258413 293.167921,104.977618 271.776883,137.539697 C256.032305,161.506564 253.039462,187.399694 256.766697,211.432601 C257.320761,215.005162 257.954412,217.94738 258.5546,220.192662 L257,208.341346 L257,265.846154 L216.625,265.846154 L216.625,354.461539 L257,354.461539 L257,512 L257,512 Z" sketch:type="MSShapeGroup"></path>
        </g>
    </g>
</svg>