<?xml version="1.0" encoding="UTF-8" standalone="no"?>
<svg width="513px" height="511px" viewBox="0 0 513 511" version="1.1" xmlns="http://www.w3.org/2000/svg" xmlns:xlink="http://www.w3.org/1999/xlink" xmlns:sketch="http://www.bohemiancoding.com/sketch/ns">
    <!-- Generator: Sketch 3.0.1 (7597) - http://www.bohemiancoding.com/sketch -->
    <title>google</title>
    <description>Created with Sketch.</description>
    <defs></defs>
    <g id="icons" stroke="none" stroke-width="1" fill="none" fill-rule="evenodd" sketch:type="MSPage">
        <g id="google" sketch:type="MSArtboardGroup" fill="#4A4A4A">
            <path d="M495,129.444444 L413.666668,129.444444 L413.666668,45 L393.333332,45 L393.333332,129.444444 L312,129.444444 L312,150.555556 L393.333332,150.555556 L393.333332,235 L413.666668,235 L413.666668,150.555556 L495,150.555556 L495,129.444444 L495,129.444444 Z M223.050161,286.761435 C211.700585,278.439707 189.996744,258.198237 189.996744,246.304794 C189.996744,232.359852 193.840873,225.489955 214.097453,209.093733 C234.866922,192.28721 249.562972,168.658133 249.562972,141.173288 C249.562972,108.454486 235.49153,76.561545 209.085359,66.04103 L248.89774,66.04103 L277,45 L151.433578,45 C95.1376517,45 42.1577315,89.1756425 42.1577315,140.352688 C42.1577315,192.644908 80.5330077,234.853214 137.803931,234.853214 C141.785169,234.853214 145.654688,234.76905 149.442958,234.484996 C145.725782,241.859877 143.06993,250.160563 143.06993,258.782125 C143.06993,273.310956 150.616002,285.099193 160.15777,294.714944 C152.951932,294.714944 145.984766,294.930615 138.392991,294.930615 C68.6654649,294.930615 15,340.931567 15,388.631582 C15,435.610941 73.8299026,465 143.557429,465 C223.050161,465 266.955498,418.278393 266.955498,371.293773 C266.955498,333.625069 256.225452,311.063824 223.050161,286.761435 L223.050161,286.761435 Z M155.624108,220.978843 C123.240735,219.98081 92.46357,183.542079 86.8774254,139.60759 C81.286198,95.6573427 103.000492,62.0236111 135.373699,63.0216446 C167.746905,64.0301838 198.534236,99.2870332 204.125464,143.226775 C209.706525,187.177022 187.992231,221.98213 155.624108,220.978843 L155.624108,220.978843 L155.624108,220.978843 Z M143.300571,444 C94.9306889,444 60,412.450032 60,374.544902 C60,337.396089 103.329547,306.471133 151.699429,307.006858 C162.982847,307.13291 173.501806,309.002694 183.052449,312.190779 C209.309075,331.009413 228.145349,341.639867 233.460889,363.084601 C234.459782,367.433423 235,371.908298 235,376.477712 C235,414.382842 211.301765,444 143.300571,444 L143.300571,444 L143.300571,444 Z" id="Fill-1" sketch:type="MSShapeGroup"></path>
        </g>
    </g>
</svg>