<?xml version="1.0" encoding="UTF-8" standalone="no"?>
<svg width="513px" height="511px" viewBox="0 0 513 511" version="1.1" xmlns="http://www.w3.org/2000/svg" xmlns:xlink="http://www.w3.org/1999/xlink" xmlns:sketch="http://www.bohemiancoding.com/sketch/ns">
    <!-- Generator: Sketch 3.0.1 (7597) - http://www.bohemiancoding.com/sketch -->
    <title>home</title>
    <description>Created with Sketch.</description>
    <defs></defs>
    <g id="icons" stroke="none" stroke-width="1" fill="none" fill-rule="evenodd" sketch:type="MSPage">
        <g id="home" sketch:type="MSArtboardGroup" fill="#4A4A4A">
            <path d="M444.85968,195.724102 L444.85968,195.724102 L272.983912,62.2615675 C268.095297,58.967561 261.835214,57 255,57 C248.231147,57 241.926824,58.967561 237.082449,62.2615675 C237.082449,62.2615675 70.1837783,191.921624 67.0205564,194.309226 L66.9984359,194.353441 C60.8710759,199.482364 57,207.242071 57,215.886075 L57,224.065822 L57,389.141976 L57,426.790924 C57,442.354552 69.6086471,455 85.2035527,455 L165.390124,455 C180.98503,455 193.637918,442.376659 193.637918,426.790924 L193.637918,328.921346 C193.637918,313.335611 206.268685,300.71227 221.863591,300.71227 L288.114289,300.71227 C303.709195,300.71227 316.362082,313.335611 316.362082,328.921346 L316.362082,426.790924 C316.362082,442.376659 328.99285,455 344.587756,455 L424.774327,455 C440.369232,455 453,442.354552 453,426.790924 L453,389.141976 L453,224.065822 L453,217.632561 L453,213.763762 C452.601832,206.7336 449.549212,200.410876 444.85968,195.724102 L444.85968,195.724102 Z" id="Shape" sketch:type="MSShapeGroup"></path>
        </g>
    </g>
</svg>