<?xml version="1.0" encoding="UTF-8" standalone="no"?>
<svg width="513px" height="511px" viewBox="0 0 513 511" version="1.1" xmlns="http://www.w3.org/2000/svg" xmlns:xlink="http://www.w3.org/1999/xlink" xmlns:sketch="http://www.bohemiancoding.com/sketch/ns">
    <!-- Generator: Sketch 3.0.1 (7597) - http://www.bohemiancoding.com/sketch -->
    <title>identification</title>
    <description>Created with Sketch.</description>
    <defs></defs>
    <g id="icons" stroke="none" stroke-width="1" fill="none" fill-rule="evenodd" sketch:type="MSPage">
        <g id="identification" sketch:type="MSArtboardGroup" fill="#4A4A4A">
            <path d="M487.777968,58 L33.769944,58 C15.662688,58 1,72.6613664 1,90.7669903 L1,413.666131 C1,431.748483 15.662688,446.433121 33.769944,446.433121 L487.777968,446.433121 C505.885224,446.433121 520.547912,431.748483 520.547912,413.666131 L520.547912,90.7669903 C520.547912,72.6613664 505.885224,58 487.777968,58 L487.777968,58 Z M91.6545213,205.462965 C88.7911657,163.373959 111.72129,132.407643 153.856849,132.407643 C195.992407,132.407643 219.062207,163.373959 216.059176,205.462965 C212.334485,258.394846 182.513684,262.265635 182.513684,287.705583 C182.513684,304.401278 202.766687,315.96701 217.968079,322.286191 C217.991359,322.286191 218.037917,322.309509 218.061197,322.332827 C218.96909,322.705915 219.900262,323.079003 220.784876,323.405455 C220.831435,323.428773 220.877994,323.475409 220.924552,323.475409 C229.258547,327.509425 234.985258,336.043816 234.985258,345.907334 C234.985258,359.641641 223.857746,370.764331 210.14623,370.764331 L97.5209085,370.764331 C83.8093925,370.764331 72.7051597,359.618323 72.7051597,345.907334 C72.7051597,336.043816 78.4551503,327.509425 86.7658654,323.475409 C87.7435966,323.102321 88.7213278,322.705915 89.7456176,322.286191 L89.7456176,322.286191 C104.94701,315.943692 125.176734,304.354642 125.176734,287.705583 C125.200013,262.265635 95.262815,258.394846 91.6545213,205.462965 L91.6545213,205.462965 Z M305.01136,321.579618 L310.12759,321.579618 L425.277815,321.579618 L430.394046,321.579618 C439.411694,322.824005 446.326781,330.428593 446.326781,339.646275 L446.326781,345.15384 C446.326781,354.348477 439.435056,361.953065 430.464131,363.197452 L425.20773,363.197452 L310.197675,363.197452 L304.941274,363.197452 C295.97035,361.953065 289.078624,354.348477 289.078624,345.15384 L289.078624,339.646275 C289.078624,330.428593 295.993712,322.824005 305.01136,321.579618 L305.01136,321.579618 Z M289.078624,256.863588 L289.078624,251.352972 C289.078624,242.130183 296.017073,234.521383 305.01136,233.299363 L310.12759,233.299363 L425.277815,233.299363 L430.394046,233.299363 C439.411694,234.521383 446.326781,242.130183 446.326781,251.352972 L446.326781,256.863588 C446.326781,266.06332 439.435056,273.672121 430.464131,274.917197 L425.20773,274.917197 L310.197675,274.917197 L304.941274,274.917197 C295.97035,273.695178 289.078624,266.086377 289.078624,256.863588 L289.078624,256.863588 Z M446.326781,167.342169 C446.326781,176.508687 439.435056,184.132098 430.464131,185.375796 L425.20773,185.375796 L310.197675,185.375796 L304.941274,185.375796 C295.97035,184.109066 289.078624,176.508687 289.078624,167.342169 L289.078624,161.81462 C289.078624,152.625071 296.017073,145.00166 305.01136,143.757962 L310.12759,143.757962 L425.277815,143.757962 L430.394046,143.757962 C439.411694,145.00166 446.326781,152.625071 446.326781,161.81462 L446.326781,167.342169 L446.326781,167.342169 Z" id="Shape" sketch:type="MSShapeGroup"></path>
        </g>
    </g>
</svg>