<?xml version="1.0" encoding="UTF-8" standalone="no"?>
<svg width="513px" height="511px" viewBox="0 0 513 511" version="1.1" xmlns="http://www.w3.org/2000/svg" xmlns:xlink="http://www.w3.org/1999/xlink" xmlns:sketch="http://www.bohemiancoding.com/sketch/ns">
    <!-- Generator: Sketch 3.0.1 (7597) - http://www.bohemiancoding.com/sketch -->
    <title>key</title>
    <description>Created with Sketch.</description>
    <defs></defs>
    <g id="icons" stroke="none" stroke-width="1" fill="none" fill-rule="evenodd" sketch:type="MSPage">
        <g id="key" sketch:type="MSArtboardGroup" fill="#4A4A4A">
            <path d="M326.656723,55 C254.129254,55 195.334671,113.801392 195.334671,186.358488 C195.334671,193.745811 195.95021,201.026994 197.138837,208.117126 C197.839278,210.770618 198.369915,213.509022 198.751973,216.247426 C201.744766,237.772557 194.952612,260.40154 178.417962,276.938104 L178.439188,276.938104 L67.9393331,387.429528 C52.0202223,403.350482 52.0202223,429.142429 67.9393331,445.063383 C75.3470261,452.450706 84.8348161,456.420331 94.49241,456.929801 C105.678239,457.587867 117.033871,453.618243 125.58774,445.063383 L137.325431,433.324333 C139.808812,430.840664 141.146018,427.635245 141.294596,424.366142 L141.294596,423.05001 L141.294596,416.617945 C141.252145,416.087246 141.252145,415.53532 141.294596,415.004621 C141.485625,411.82043 142.801605,408.657467 145.263761,406.216254 L164.472821,386.983741 C166.956203,384.500072 170.16125,383.162712 173.408749,383.035345 C173.854484,382.992889 174.300219,382.992889 174.724729,383.035345 L181.665461,383.035345 L182.323451,383.035345 C185.677077,382.950433 189.009478,381.634301 191.598986,379.044492 L194.973838,375.648022 C197.414768,373.249265 198.751973,370.086302 198.943003,366.859655 L198.943003,366.732287 L198.943003,365.416155 L198.943003,365.246332 L198.943003,358.98409 C198.900552,358.453391 198.900552,357.901465 198.943003,357.370766 C199.134032,354.144119 200.450012,350.981156 202.890942,348.582399 C203.46403,348.009245 204.100795,347.457319 204.737559,347.053988 C206.881333,345.525576 209.364714,344.740142 211.848095,344.612775 C212.29383,344.570319 212.71834,344.570319 213.164075,344.612775 L219.255788,344.612775 L221.526915,344.612775 C222.460836,344.527863 223.373532,344.358039 224.265002,344.124532 C226.366324,343.508922 228.340294,342.341385 230.017107,340.685606 L236.10882,334.593187 C252.664695,318.056623 275.312284,311.242454 296.856147,314.27805 C299.530558,314.660152 302.204968,315.190851 304.836928,315.848917 C311.947464,317.05891 319.24903,317.67452 326.677948,317.67452 C399.205417,317.67452 458,258.873128 458,186.358488 C457.978775,113.801392 399.184192,55 326.656723,55 L326.656723,55 Z M137,414.126 L137.126,414 C137.147,414.084 137.147,414.168 137.147,414.252 C137.105,414.21 137.063,414.168 137,414.126 L137,414.126 Z M206,344.567 L206.546,344 L206.588,344 C206.399,344.189 206.21,344.357 206,344.567 L206,344.567 Z M345.500009,208 C323.119546,208 304.978925,189.880469 305.000018,167.5 C305.000018,145.119531 323.119546,127 345.500009,127 C367.859379,127 386,145.119531 386,167.5 C386,189.880469 367.859379,208 345.500009,208 L345.500009,208 Z" id="Shape" sketch:type="MSShapeGroup"></path>
        </g>
    </g>
</svg>