<?xml version="1.0" encoding="UTF-8" standalone="no"?>
<svg width="513px" height="511px" viewBox="0 0 513 511" version="1.1" xmlns="http://www.w3.org/2000/svg" xmlns:xlink="http://www.w3.org/1999/xlink" xmlns:sketch="http://www.bohemiancoding.com/sketch/ns">
    <!-- Generator: Sketch 3.0.1 (7597) - http://www.bohemiancoding.com/sketch -->
    <title>logo</title>
    <description>Created with Sketch.</description>
    <defs></defs>
    <g id="icons" stroke="none" stroke-width="1" fill="none" fill-rule="evenodd" sketch:type="MSPage">
        <g id="logo" sketch:type="MSArtboardGroup" fill="#4A4A4A">
            <path d="M0,256 C0,114.842217 114.842217,0 256,0 C397.157782,0 512,104.17555 512,245.333334 C512,313.614394 465.875792,366.696867 408.803213,366.696867 C381.081187,366.696867 362.496,356.660435 339.159904,339.68424 C333.577254,348.604144 326.70535,356.715952 318.618217,363.846941 C293.110747,386.344096 257.684048,396.503904 223.774844,390.970602 C182.771663,384.296096 157.09147,345.735712 149.238747,326.279712 C129.276915,276.800771 131.670362,225.18747 155.808385,184.671615 C175.134844,152.230555 206.286651,130.634025 239.147181,126.914314 C298.150555,120.184289 336.821974,143.736289 341.022845,146.438169 L355.192288,155.543133 C355.192288,155.543133 344.284106,228.333094 355.192288,258.74506 C366.100474,289.157026 377.565043,305.010121 408.803213,305.010121 C417.235792,305.010121 450.313923,294.343446 450.313254,256 C450.311382,148.856289 363.143712,61.686747 256,61.686747 C148.856289,61.686747 61.6867469,148.856289 61.6867469,256 C61.6867469,363.143712 148.856289,450.313254 256,450.313254 C298.341783,450.313254 338.580048,436.939565 372.347373,411.64183 L409.334746,461.009734 C364.809254,494.369926 311.783325,512 256,512 C114.842217,512 0,397.157782 0,256 L0,256 L0,256 Z M249.129908,187.620916 C233.037847,189.159922 216.165963,199.883709 205.080807,215.606185 C195.227335,229.568039 181.773556,259.406269 202.296763,302.369134 C206.859096,311.923277 222.025571,327.491852 234.488173,329.215537 C253.131059,331.770286 260.075375,327.116336 274.017455,316.724973 C287.893942,306.395171 295.612009,285.741723 295.612009,264.509609 L295.612009,191.807011 C286.01362,189.23995 269.520716,186.82679 253.035099,186.82679 C247.824128,186.82679 254.916636,187.066876 249.129908,187.620916 L249.129908,187.620916 L249.129908,187.620916 Z" id="Imported-Layers-copy" sketch:type="MSShapeGroup"></path>
        </g>
    </g>
</svg>