<?xml version="1.0" encoding="UTF-8" standalone="no"?>
<svg width="513px" height="511px" viewBox="0 0 513 511" version="1.1" xmlns="http://www.w3.org/2000/svg" xmlns:xlink="http://www.w3.org/1999/xlink" xmlns:sketch="http://www.bohemiancoding.com/sketch/ns">
    <!-- Generator: Sketch 3.0.1 (7597) - http://www.bohemiancoding.com/sketch -->
    <title>people</title>
    <description>Created with Sketch.</description>
    <defs></defs>
    <g id="icons" stroke="none" stroke-width="1" fill="none" fill-rule="evenodd" sketch:type="MSPage">
        <g id="people" sketch:type="MSArtboardGroup" fill="#4A4A4A">
            <path d="M184.967965,286.014924 C176.15193,278.20307 165.59764,256.602341 164.35832,241.72629 C162.960006,224.941775 168.196763,222.138472 174.46222,221.263944 C177.779417,176.590813 214.281282,137.25018 258.822037,137.25018 C303.446439,137.25018 340.001738,176.723118 343.200199,221.51573 C348.896485,222.66749 353.291447,226.289072 351.915998,241.671217 C350.744452,254.773017 342.129256,273.117742 333.88238,282.666034 C326.530837,303.798189 314.798172,323.596097 298.221758,336.01221 L298.221758,340.213745 C332.630826,353.13375 369.787654,374.755277 369.787654,374.755277 C381.526685,381.128933 390.659831,396.797167 390.659831,409.810936 L390.659831,426.94486 C390.659831,439.896985 379.975331,450.508373 366.795333,450.508373 C366.795333,450.508373 351.915998,473.881828 258.822037,473.881801 C165.728074,473.881781 150.84875,450.508373 150.84875,450.508373 C137.64722,450.508373 126.984252,439.958629 126.984252,426.94486 L126.984252,409.810936 C126.984252,396.858811 135.953535,380.736395 147.017707,373.938198 C147.017707,373.938198 180.525102,351.40181 217.09081,338.90091 L217.09081,334.191888 C202.59464,322.405303 191.999234,304.8795 184.967965,286.014924 L184.967965,286.014924 L184.967965,286.014924 Z M126.758474,80.5 C84.2715859,80.5 49.4528939,114.629254 46.28866,157.953326 C40.3121166,158.801445 35.3168363,161.520092 36.6506712,177.797741 C37.8328439,192.224559 47.9004541,213.17298 56.3099628,220.748928 C63.0170055,239.043824 73.1238355,256.040374 86.9515565,267.471024 L86.9515565,272.03784 C52.0719694,284.161233 20.1096708,306.017056 20.1096708,306.017056 C9.55569104,312.60996 1,328.245506 1,340.806496 L1,357.423002 C1,370.043777 11.1712762,380.274935 23.7640558,380.274935 L88.1141311,380.274935 C90.7162727,369.291939 98.1076132,357.874499 106.81941,352.432378 C106.81941,352.432378 129.559069,330.069847 165.524764,317.568946 C165.524764,317.568946 151.062826,283.373681 144.146934,264.509105 C135.475564,256.69725 130.372448,241.751347 129.153464,226.875296 C127.778095,210.090781 132.928922,207.287479 139.091567,206.41295 C141.837453,168.816823 168.335886,133.239908 202.574803,124.399243 C188.619742,99.3269424 156.627675,80.5 126.758474,80.5 L126.758474,80.5 L126.758474,80.5 Z M387.052549,80.5 C429.539438,80.5 464.358129,117.295602 467.522363,164.004367 C473.498908,164.918745 478.494187,167.849787 477.160353,185.399127 C475.97818,200.95304 465.91057,223.538056 457.501061,231.705876 C450.794019,251.43006 440.68719,269.754466 426.859467,282.078135 L426.859467,287.001734 C461.739054,300.072267 493.701353,323.635577 493.701353,323.635577 C504.255332,330.74355 512.811024,347.600623 512.811024,361.142941 L512.811024,379.057612 C512.811024,392.664382 502.639747,403.694849 490.046969,403.694849 L425.696891,403.694849 C423.094752,391.853811 415.70341,379.544381 406.991613,373.677095 C406.991613,373.677095 384.251956,349.567491 348.286261,336.089957 C348.286261,336.089957 362.748198,299.223188 369.664088,278.884816 C378.33546,270.462661 383.438575,254.349109 384.657561,238.310866 C386.03293,220.215061 380.882102,217.19275 374.719457,216.249899 C371.973571,175.716575 345.475139,137.360214 311.23622,127.828872 C325.191282,100.797797 357.183349,80.5 387.052549,80.5 L387.052549,80.5 L387.052549,80.5 Z" sketch:type="MSShapeGroup"></path>
        </g>
    </g>
</svg>