<?xml version="1.0" encoding="UTF-8" standalone="no"?>
<svg width="513px" height="511px" viewBox="0 0 513 511" version="1.1" xmlns="http://www.w3.org/2000/svg" xmlns:xlink="http://www.w3.org/1999/xlink" xmlns:sketch="http://www.bohemiancoding.com/sketch/ns">
    <!-- Generator: Sketch 3.0.1 (7597) - http://www.bohemiancoding.com/sketch -->
    <title>plus</title>
    <description>Created with Sketch.</description>
    <defs></defs>
    <g id="icons" stroke="none" stroke-width="1" fill="none" fill-rule="evenodd" sketch:type="MSPage">
        <g id="plus" sketch:type="MSArtboardGroup" fill="#414042">
            <path d="M292.990717,306.322299 C292.935403,305.769179 292.880089,305.188403 292.880089,304.607626 C292.880089,304.02685 292.921574,303.432246 292.990717,302.865298 C293.834252,296.794804 299.061406,292.093283 305.394836,292.093283 L433.072914,292.107111 L439.461657,292.107111 C457.687554,290.530718 471.986172,275.20929 472,256.582968 C472,237.638602 457.258872,222.178894 438.659607,220.975857 L433.971763,220.989685 L306.224543,220.989685 C305.394836,221.017341 304.924669,220.989685 304.924669,220.989685 C298.535925,220.685469 293.40557,215.55528 293.087516,209.152914 C293.073687,208.28175 293.2258,80.9396596 293.2258,80.9396596 L293.211972,74.5372937 C291.6217,56.3258123 276.313606,42.013828 257.659027,42 C238.727879,42.013828 223.267672,56.7268244 222.064597,75.353146 L222.064597,80.0546674 L222.078426,207.839253 C222.106083,208.807214 222.092254,209.04229 222.078426,209.277366 C221.691229,215.610592 216.630016,220.643985 210.310415,221.017341 C209.383909,221.031169 209.204139,221.017341 209.010541,221.017341 C208.969055,221.003513 81.2909777,221.044997 81.2909777,221.044997 L75.5659994,221.017341 C57.3401025,222.48311 43,237.735398 43,256.320236 C43,275.90069 58.8059182,291.733755 78.3593463,291.789067 L209.342423,291.899691 C216.837443,292.231563 222.092254,297.707452 222.106083,304.414034 L222.119911,432.724085 L222.119911,438.448878 C223.599555,456.66036 238.852335,471 257.437772,471 C276.9912,471 292.852432,455.194591 292.893917,435.627965 L292.990717,306.322299 Z" id="Shape-2" sketch:type="MSShapeGroup"></path>
        </g>
    </g>
</svg>