<?xml version="1.0" encoding="UTF-8" standalone="no"?>
<svg width="513px" height="511px" viewBox="0 0 513 511" version="1.1" xmlns="http://www.w3.org/2000/svg" xmlns:xlink="http://www.w3.org/1999/xlink" xmlns:sketch="http://www.bohemiancoding.com/sketch/ns">
    <!-- Generator: Sketch 3.0.1 (7597) - http://www.bohemiancoding.com/sketch -->
    <title>quote</title>
    <description>Created with Sketch.</description>
    <defs></defs>
    <g id="icons" stroke="none" stroke-width="1" fill="none" fill-rule="evenodd" sketch:type="MSPage">
        <g id="quote" sketch:type="MSArtboardGroup" fill="#4A4A4A">
            <path d="M230.140778,179.586391 L229.695583,179.586391 C231.881231,127.458912 193.549324,81.9720931 141.518004,76.5346746 C87.4655636,70.8885636 39.116777,110.602099 33.5292612,165.23715 C27.9417455,219.873831 67.2317883,268.743751 121.285841,274.391492 C129.854226,275.286588 138.277438,275.033874 146.413532,273.770306 C146.428049,281.371279 145.4683,288.947796 143.210066,296.289534 C131.967288,332.859638 111.993209,363.989063 102.505401,366.914019 L102.668316,366.871628 L117.571047,432 C142.135792,426.256064 163.521266,405.130838 177.133577,388.419131 C194.681667,366.87815 208.482702,341.561138 215.992943,317.131069 C235.818623,252.641818 230.381118,182.539064 230.140778,179.586391 M479.140778,182.586391 L478.695583,182.586391 C480.88123,130.458912 442.549325,84.9720931 390.518003,79.5346746 C336.465563,73.8885636 288.116777,113.602099 282.529261,168.23715 C276.941746,222.873831 316.231788,271.743751 370.285841,277.391492 C378.854225,278.286588 387.277438,278.033874 395.413532,276.770306 C395.428049,284.371279 394.468299,291.947796 392.210065,299.289534 C380.967287,335.859638 360.993209,366.989063 351.505401,369.914019 L351.668316,369.871628 L366.571046,435 C391.135791,429.256064 412.521266,408.130837 426.133577,391.419131 C443.681667,369.87815 457.482703,344.561138 464.992942,320.131069 C484.818622,255.641818 479.381118,185.539064 479.140778,182.586391" id="Fill-1" sketch:type="MSShapeGroup"></path>
        </g>
    </g>
</svg>