<?xml version="1.0" encoding="UTF-8" standalone="no"?>
<svg width="513px" height="511px" viewBox="0 0 513 511" version="1.1" xmlns="http://www.w3.org/2000/svg" xmlns:xlink="http://www.w3.org/1999/xlink" xmlns:sketch="http://www.bohemiancoding.com/sketch/ns">
    <!-- Generator: Sketch 3.0.1 (7597) - http://www.bohemiancoding.com/sketch -->
    <title>search</title>
    <description>Created with Sketch.</description>
    <defs></defs>
    <g id="icons" stroke="none" stroke-width="1" fill="none" fill-rule="evenodd" sketch:type="MSPage">
        <g id="search" sketch:type="MSArtboardGroup" fill="#4A4A4A">
            <path d="M467.208599,409.535991 C466.893534,409.240488 466.59816,408.964685 466.283094,408.688883 C418.747554,367.318503 385.823187,337.236327 369.380696,321.988387 C367.332768,320.550274 365.521141,318.836358 363.906429,316.905741 C359.869649,312.000396 357.447582,305.735738 357.447582,298.860375 C357.447582,297.638964 357.526348,296.456953 357.683881,295.255242 C357.998947,292.85182 358.589695,290.546899 359.456126,288.360179 C360.105949,286.705364 360.952688,285.089949 361.917576,283.592735 C372.807035,261.430032 378.9902,236.568404 379.167424,210.248962 C379.758172,116.811005 304.575617,40.6107056 211.178324,40.0197002 C210.784492,40 210.410352,40 210.055903,40 C117.170592,40.0394004 41.5942041,115.037989 41.0034558,208.062242 C40.4127076,301.480499 115.634647,377.700499 208.992556,378.291504 C209.366696,378.291504 209.721145,378.311204 210.095286,378.311204 C236.934946,378.311204 262.356811,372.026847 284.923393,360.817444 C285.514141,360.46284 286.124581,360.187038 286.754712,359.891535 C289.984136,358.394321 293.568008,357.507813 297.329105,357.350212 C297.742629,357.310811 298.156153,357.310811 298.549985,357.310811 C305.363281,357.310811 311.60552,359.694533 316.469347,363.69367 C318.024984,364.954482 319.423088,366.392595 320.66366,367.929209 C336.397254,383.866655 369.124705,417.810067 410.693687,465.169301 C411.008753,465.543605 411.34351,465.898208 411.697959,466.252811 C426.309132,481.559852 451.65223,480.023237 466.696618,464.775298 C481.760697,449.468257 481.603164,423.109415 467.208599,409.535991 L467.208599,409.535991 Z M298.788471,298.40061 C285.078742,311.992418 268.808288,322.097632 251.021097,328.184398 C238.020492,332.695302 224.172878,335 210.010098,335 L209.163089,335 C139.728041,334.586336 83.5496697,277.678027 84.0027211,208.20222 C84.4360746,139.179473 140.94931,83 209.970702,83 L210.817712,83 C244.442003,83.216681 276.017714,96.5327132 299.655178,120.466114 C323.292641,144.399515 336.194756,176.133432 335.997777,209.79778 C335.899288,224.709372 333.240073,239.167904 328.197415,252.759712 C321.953185,269.739623 312.005752,285.28156 298.788471,298.40061 L298.788471,298.40061 Z" id="Shape" sketch:type="MSShapeGroup"></path>
        </g>
    </g>
</svg>