<?xml version="1.0" encoding="UTF-8" standalone="no"?>
<svg width="513px" height="511px" viewBox="0 0 513 511" version="1.1" xmlns="http://www.w3.org/2000/svg" xmlns:xlink="http://www.w3.org/1999/xlink" xmlns:sketch="http://www.bohemiancoding.com/sketch/ns">
    <!-- Generator: Sketch 3.0.1 (7597) - http://www.bohemiancoding.com/sketch -->
    <title>tag</title>
    <description>Created with Sketch.</description>
    <defs></defs>
    <g id="icons" stroke="none" stroke-width="1" fill="none" fill-rule="evenodd" sketch:type="MSPage">
        <g id="tag" sketch:type="MSArtboardGroup" fill="#4A4A4A">
            <path d="M446.848623,263.830346 C446.848623,263.830346 446.867851,263.811135 446.887079,263.791924 L448.271483,262.408761 C448.29071,262.389551 448.309938,262.37034 448.309938,262.37034 C455.520374,254.782153 459.231345,245.119221 459.462079,235.398657 L459.481307,235.398657 L462.846177,143.956199 L463,139.710656 C462.846177,129.509827 458.904472,119.36663 451.097974,111.586337 L406.374042,66.8832696 C398.163759,58.7187644 387.396175,54.7613807 376.647818,55.0111185 L376.590134,55.0111185 L372.783024,55.2800669 L284.373464,61.4658802 L284.14273,61.4658802 L282.431454,61.5811438 L282.412226,61.6003544 C274.471132,62.3687784 266.722317,65.4424745 260.261766,70.8598639 L255.339442,75.758567 L65.6184488,264.195347 L62.8111857,267.000095 C53.3126379,277.834873 53.754878,294.35599 64.0994503,304.710503 L215.422468,455.91714 C226.228508,466.694287 243.745061,466.694287 254.551101,455.91714 L254.589557,455.91714 C254.589557,455.878719 254.589557,455.878719 254.608784,455.878719 L446.848623,263.830346 L446.848623,263.830346 Z M350.400451,165.607135 C338.097005,153.30088 336.70236,134.230006 346.254724,120.414133 C347.439218,118.636987 348.833863,116.955387 350.400451,115.388442 C362.188068,103.598132 380.222933,101.840096 393.863709,110.133441 C396.2518,111.566623 398.525263,113.343769 400.607678,115.388442 C402.881141,117.681533 404.810719,120.203933 406.319992,122.898315 C414.076512,136.446661 412.204249,154.027025 400.607678,165.607135 C399.021986,167.193189 397.321665,168.588153 395.544925,169.811135 C381.713101,179.289245 362.684791,177.875172 350.400451,165.607135 L350.400451,165.607135 Z" id="Shape" sketch:type="MSShapeGroup"></path>
        </g>
    </g>
</svg>