<?xml version="1.0" encoding="UTF-8" standalone="no"?>
<svg width="513px" height="511px" viewBox="0 0 513 511" version="1.1" xmlns="http://www.w3.org/2000/svg" xmlns:xlink="http://www.w3.org/1999/xlink" xmlns:sketch="http://www.bohemiancoding.com/sketch/ns">
    <!-- Generator: Sketch 3.0.1 (7597) - http://www.bohemiancoding.com/sketch -->
    <title>trend</title>
    <description>Created with Sketch.</description>
    <defs></defs>
    <g id="icons" stroke="none" stroke-width="1" fill="none" fill-rule="evenodd" sketch:type="MSPage">
        <g id="trend" sketch:type="MSArtboardGroup" fill="#4A4A4A">
            <path d="M501.155119,124.400727 C496.593664,119.839273 490.705664,117.372364 484.724573,117 L481.629301,117 L460.590755,117 L360.215482,117 L356.584937,117 C352.861301,117.395636 349.254028,119.001455 346.391482,121.864 C339.805301,128.496727 339.782028,139.202182 346.391482,145.834909 L379.322391,178.765818 C385.931846,185.398545 385.955119,196.104 379.322391,202.736727 L288.419119,293.826182 C287.930391,294.361455 287.418391,294.873455 286.883119,295.338909 C283.741301,298.154909 279.575482,299.807273 275.037301,299.807273 C270.173301,299.807273 265.821301,297.898909 262.632937,294.803636 C262.470028,294.664 262.330391,294.524364 262.237301,294.384727 L171.26421,204.249455 L170.775482,203.784 C170.519482,203.528 170.24021,203.248727 170.030755,203.039273 C165.771846,199.245818 160.349301,197.174545 154.670755,197.174545 C149.224937,197.174545 143.918755,199.129455 139.752937,202.620364 C139.496937,202.853091 139.240937,203.109091 138.984937,203.341818 L120.669301,221.680727 C120.483119,221.843636 120.343482,221.983273 120.203846,222.146182 L71.6802096,270.693091 C71.5405733,270.762909 71.4009369,270.949091 71.2845733,271.088727 C71.1449369,271.205091 71.0053005,271.368 70.8656642,271.507636 L65.4663914,276.906909 C65.1173005,277.186182 64.7914824,277.488727 64.4889369,277.768 L8.75075508,333.413091 C8.37839144,333.762182 8.05257326,334.134545 7.75002781,334.506909 C-2.04779037,346.725091 -1.09360856,364.342545 10.0540278,375.466909 C15.8489369,381.285091 23.5289369,384.496727 31.7907551,384.496727 C39.2147551,384.496727 46.3827551,381.797091 51.9682096,376.909818 C52.2009369,376.723636 52.4103914,376.514182 52.619846,376.304727 L141.265664,287.658909 C141.335482,287.565818 141.405301,287.496 141.475119,287.426182 C141.707846,287.146909 141.963846,286.890909 142.219846,286.658182 C142.289664,286.565091 142.359482,286.472 142.452573,286.425455 C145.617664,283.516364 149.830028,281.770909 154.507846,281.770909 C159.092573,281.770909 163.351482,283.516364 166.516573,286.425455 C166.563119,286.425455 166.586391,286.472 166.609664,286.472 C166.958755,286.797818 167.238028,287.100364 167.540573,287.426182 C167.610391,287.472727 167.656937,287.565818 167.750028,287.635636 L258.234391,377.375273 L258.723119,377.864 C259.002391,378.12 259.258391,378.376 259.514391,378.608727 C263.726755,382.378909 269.172573,384.473455 274.851119,384.473455 C280.273664,384.473455 285.603119,382.518545 289.745664,378.981091 C290.024937,378.771636 290.257664,378.515636 290.536937,378.306182 L422.91221,246.326545 C429.544937,239.693818 440.250391,239.693818 446.906391,246.326545 L479.604573,279.048 C486.237301,285.680727 496.989301,285.680727 503.575482,279.048 C506.926755,275.72 508.555846,271.414545 508.555846,267.039273 L508.648937,267.039273 L508.648937,164.965091 L508.648937,143.763636 L508.67221,140.947636 C508.230028,134.943273 505.739846,129.008727 501.155119,124.400727 L501.155119,124.400727 Z" id="Shape" sketch:type="MSShapeGroup"></path>
        </g>
    </g>
</svg>