<?xml version="1.0" encoding="UTF-8" standalone="no"?>
<svg width="513px" height="511px" viewBox="0 0 513 511" version="1.1" xmlns="http://www.w3.org/2000/svg" xmlns:xlink="http://www.w3.org/1999/xlink" xmlns:sketch="http://www.bohemiancoding.com/sketch/ns">
    <!-- Generator: Sketch 3.0.1 (7597) - http://www.bohemiancoding.com/sketch -->
    <title>twitter</title>
    <description>Created with Sketch.</description>
    <defs></defs>
    <g id="icons" stroke="none" stroke-width="1" fill="none" fill-rule="evenodd" sketch:type="MSPage">
        <g id="twitter" sketch:type="MSArtboardGroup" fill="#4A4A4A">
            <path d="M469,126.242411 C453.621295,133.068929 437.078893,137.69161 419.730855,139.752108 C437.436954,129.127108 451.043259,112.302698 457.434641,92.2710793 C440.856433,102.107715 422.505825,109.256745 402.973617,113.10898 C387.344269,96.4279089 365.054994,86 340.384615,86 C293.013192,86 254.62909,124.432757 254.62909,171.824199 C254.62909,178.543212 255.381018,185.10097 256.849066,191.389966 C185.577094,187.806492 122.37939,153.638069 80.0745246,101.713533 C72.6984752,114.39903 68.4733596,129.127108 68.4733596,144.858558 C68.4733596,174.637226 83.619325,200.904089 106.624722,216.29511 C92.5708412,215.847175 79.3405003,211.994941 67.7930444,205.562605 L67.7930444,206.655565 C67.7930444,248.241779 97.3509508,282.929806 136.576495,290.813449 C129.379476,292.766442 121.806493,293.823567 113.982868,293.823567 C108.450831,293.823567 103.079921,293.286046 97.8522357,292.282673 C108.755182,326.379427 140.425647,351.194983 177.968306,351.893761 C148.625236,374.91758 111.637571,388.642285 71.463166,388.642285 C64.5346925,388.642285 57.7136371,388.248103 51,387.441821 C88.9544286,411.791526 134.034264,426 182.461967,426 C340.205585,426 426.462395,295.221121 426.462395,181.804174 C426.462395,178.077361 426.390783,174.368465 426.211753,170.695405 C442.968991,158.565346 457.506253,143.461003 469,126.242411 L469,126.242411 Z" id="Shape" sketch:type="MSShapeGroup"></path>
        </g>
    </g>
</svg>