<?xml version="1.0" encoding="UTF-8" standalone="no"?>
<svg width="513px" height="511px" viewBox="0 0 513 511" version="1.1" xmlns="http://www.w3.org/2000/svg" xmlns:xlink="http://www.w3.org/1999/xlink" xmlns:sketch="http://www.bohemiancoding.com/sketch/ns">
    <!-- Generator: Sketch 3.0.1 (7597) - http://www.bohemiancoding.com/sketch -->
    <title>warning</title>
    <description>Created with Sketch.</description>
    <defs></defs>
    <g id="icons" stroke="none" stroke-width="1" fill="none" fill-rule="evenodd" sketch:type="MSPage">
        <g id="warning" sketch:type="MSArtboardGroup" fill="#414042">
            <path d="M509.096919,440.006497 L507.102474,436.56897 L282.223854,48.2666608 L278.768132,42.3398894 C273.574676,35.4450786 265.340185,31 256.059104,31 C246.758276,31 238.523785,35.4450786 233.330328,42.3398894 L229.894354,48.2666608 L5.31193791,436.015805 L2.58685452,440.71771 C0.928108111,444.333041 0,448.343489 0,452.551497 C0,468.257441 12.7368028,481 28.4356528,481 L483.58382,481 C499.28267,481 511.999726,468.237685 511.999726,452.551497 C512.019473,448.047151 510.972883,443.799631 509.096919,440.006497 Z M456.222272,442.923077 C456.064337,442.923077 455.926144,442.923077 455.807693,442.903324 L56.6470321,442.903324 C56.508839,442.923077 56.3509042,442.923077 56.2127111,442.923077 C56.09426,442.923077 55.9363251,442.923077 55.7981321,442.903324 C52.5209834,442.686042 49.9150579,439.960136 49.9150579,436.602137 C49.9150579,435.555232 50.1717021,434.567585 50.606023,433.718208 C50.6652486,433.599691 50.744216,433.481173 50.8231835,433.362656 L250.591061,88.3973687 C250.689771,88.1800864 250.808222,87.982557 250.946415,87.7850277 C250.966157,87.7455218 250.985899,87.7257689 251.025382,87.686263 C252.150668,86.0270163 254.065629,84.9010989 256.256975,84.9010989 C258.448322,84.9010989 260.363282,86.0270163 261.488568,87.686263 C261.528052,87.7257689 261.547794,87.7455218 261.567535,87.7850277 C261.685987,88.00231 261.804438,88.1998393 261.922889,88.3973687 L461.82896,433.599691 L461.809218,433.599691 C462.283023,434.488573 462.579151,435.535479 462.579151,436.602137 C462.579151,439.960136 459.953483,442.705795 456.676335,442.903324 C456.498658,442.923077 456.360465,442.923077 456.222272,442.923077 Z M256,172.923077 C241.542541,172.923077 229.80695,184.704709 229.80695,199.218889 C230.02391,201.159393 230.240871,203.080096 230.438108,204.980998 C239.550449,287.571232 241.85812,327.846594 241.85812,327.846594 C241.85812,335.687815 248.169698,342.043956 256,342.043956 C263.810578,342.043956 270.14188,335.687815 270.14188,327.846594 C270.14188,327.846594 272.449551,287.571232 281.561892,204.980998 C281.759129,203.080096 281.97609,201.159393 282.19305,199.218889 C282.19305,184.684908 270.457459,172.923077 256,172.923077 Z M263.413127,419.186813 C277.87915,419.186813 289.606178,407.452738 289.606178,392.978022 C289.606178,378.503306 277.87915,366.769231 263.413127,366.769231 C248.947105,366.769231 237.220077,378.503306 237.220077,392.978022 C237.220077,407.452738 248.947105,419.186813 263.413127,419.186813 Z" id="Shape" sketch:type="MSShapeGroup"></path>
        </g>
    </g>
</svg>