<?xml version="1.0" encoding="UTF-8" standalone="no"?>
<svg width="513px" height="511px" viewBox="0 0 513 511" version="1.1" xmlns="http://www.w3.org/2000/svg" xmlns:xlink="http://www.w3.org/1999/xlink" xmlns:sketch="http://www.bohemiancoding.com/sketch/ns">
    <!-- Generator: Sketch 3.0.1 (7597) - http://www.bohemiancoding.com/sketch -->
    <title>x</title>
    <description>Created with Sketch.</description>
    <defs></defs>
    <g id="icons" stroke="none" stroke-width="1" fill="none" fill-rule="evenodd" sketch:type="MSPage">
        <g id="x" sketch:type="MSArtboardGroup" fill="#414042">
            <path d="M299.063407,469.372748 L299.211869,315.31806 C299.145886,314.658226 299.079903,313.965401 299.079903,313.272575 C299.079903,312.57975 299.12939,311.870428 299.211869,311.194099 C300.218116,303.952423 306.453545,298.343836 314.008642,298.343836 L314.008642,298.211869 L466.31477,298.360332 L473.93585,298.360332 C495.677373,296.479806 512.734075,278.202411 512.750571,255.982509 C512.750571,233.383202 495.166001,214.940849 472.979091,213.50571 L467.387,213.522206 L314.998392,213.522206 C314.915913,213.538702 314.800442,213.522206 314.684971,213.538702 C314.536509,213.522206 314.37155,213.555198 314.272575,213.555198 C314.008642,213.555198 313.728212,213.538702 313.464279,213.538702 L313.447783,213.522206 C305.826703,213.159297 299.706745,207.039339 299.32734,199.401763 C299.32734,199.13783 299.310845,198.857401 299.32734,198.609963 C299.310845,198.362525 299.32734,198.115088 299.343836,197.86765 L299.492299,46.452297 L299.475803,38.8147211 C297.578781,17.0896945 279.317881,0.0164958441 257.064988,0 C234.482177,0.0164958441 216.039824,17.568074 214.604685,39.7879759 L214.604685,45.3965629 L214.621181,197.834658 C214.621181,197.834658 214.621181,197.834658 214.621181,197.86765 C214.637677,198.115088 214.654173,198.395517 214.654173,198.65945 C214.654173,198.989367 214.637677,199.269797 214.621181,199.550226 C214.159297,207.105323 208.121818,213.10981 200.583218,213.555198 C200.550226,213.555198 200.517234,213.555198 200.484243,213.555198 C200.236805,213.538702 199.989367,213.588189 199.74193,213.571693 C199.477996,213.571693 199.26355,213.555198 199.032608,213.555198 C198.983121,213.538702 198.966625,213.555198 198.950129,213.538702 L46.6769923,213.588189 L39.8477128,213.555198 C18.1061903,215.303757 1,233.498673 1,255.669088 C1,279.027203 19.8547498,297.914944 43.1798733,297.980928 L43.3943193,297.964432 L199.428509,298.112894 L199.725434,298.112894 C199.972871,298.096399 200.253301,298.112894 200.467747,298.12939 C208.369256,298.508795 214.637677,305.041149 214.654173,313.041633 L214.670669,466.106571 L214.670669,472.93585 C216.435724,494.660877 234.63064,511.767067 256.801054,511.767067 C280.126178,511.767067 299.046911,492.912317 299.096399,469.570698 L299.063407,469.372748 L299.063407,469.372748 Z" id="Shape-3" sketch:type="MSShapeGroup" transform="translate(257.000000, 256.000000) rotate(-45.000000) translate(-257.000000, -256.000000) "></path>
        </g>
    </g>
</svg>